<?xml version="1.0" encoding="UTF-8"?>
<svg id="Layer_2" data-name="Layer 2" xmlns="http://www.w3.org/2000/svg" width="188.57" height="241.65" xmlns:xlink="http://www.w3.org/1999/xlink" viewBox="0 0 188.57 241.65">
  <defs>
    <clipPath id="clippath">
      <path d="M140.285,187.101s12.839,7.998,25.294-3.582c2.143-1.993,6.678-.214,6.772,2.659.29,8.859-5.924,23.051-38.025,14.994,0,0,1.106-2.615,1.107-2.617.044-.103,4.852-11.454,4.852-11.454Z" style="fill: none;"/>
    </clipPath>
  </defs>
  <g id="Layer_2-2" data-name="Layer 2">
    <g>
      <g>
        <g>
          <path d="M140.285,187.101s12.839,7.998,25.294-3.582c2.143-1.993,6.678-.214,6.772,2.659.29,8.859-5.924,23.051-38.025,14.994,0,0,1.106-2.615,1.107-2.617.044-.103,4.852-11.454,4.852-11.454Z" style="fill: #fdedc0;"/>
          <g style="clip-path: url(#clippath);">
            <path d="M157.736,186.525s12.194,24.171-24.044,16.146c.613-12.754,3.917-18.688,4.26-18.734s19.784,2.587,19.784,2.587Z" style="fill: #1c251c;"/>
          </g>
        </g>
        <path d="M182.672,146.693c-1.689-10.157-12.147-16.389-12.147-16.389,0,0-30.082-20.826-30.204-20.582,23.871-13.519,20.948-44.94,21.435-45.671C163.949-4.151,94.955.051,94.955.051L93.859,0l-1.096.051S23.769-4.151,25.962,64.051c.487.731-2.436,32.152,21.435,45.671-.122-.244-30.204,20.582-30.204,20.582,0,0-10.458,6.232-12.147,16.389-.779,4.684.705,9.464,3.852,13.02l14.354,16.217s3.726,11.011,13.897,9.919c.056-.006.111-.014.166-.023.848-.143,7.618-1.378,9.899-4.857,0,.061-4.506,44.149-4.506,44.149h-.594c-5.776,0-10.459,4.682-10.459,10.459v2.695c0,1.867,1.513,3.38,3.38,3.38h36.213c.631,0,1.193-.401,1.398-.998l15.556-45.284c.325-.946,1.215-1.581,2.215-1.581h6.887c1,0,1.89.635,2.215,1.581l15.556,45.284c.205.597.767.998,1.398.998h36.213c1.867,0,3.38-1.513,3.38-3.38v-2.695c0-5.776-4.682-10.459-10.459-10.459h-.594s-4.506-44.088-4.506-44.149c2.237,3.411,8.788,4.666,9.842,4.848.092.016.185.029.278.038,10.129,1.046,13.841-9.925,13.841-9.925l14.354-16.217c3.147-3.556,4.631-8.335,3.852-13.02ZM38.618,150.739c-1.853-1.549-1.776-4.421.157-5.869l5.85-4.381,1.781,16.761-7.789-6.511ZM149.1,150.739l-7.789,6.511,1.781-16.761,5.85,4.381c1.933,1.448,2.01,4.32.157,5.869Z" style="fill: #fdedc0;"/>
        <path d="M144.399,65.863s-12.388,23.746-28.313,15.194c-.21,0-18.124-9.122-15.924-31.016,0,.342,2.095-20.297,18.334-24.516-.101.11,11.807-3.359,13.289-12.198.208-1.239.522-2.459,1.062-3.573,1.435-2.963,4.881-7.019,12.731-3.67.079.086,14.3,4.96,28.758,21.608.21.114,19.8,19.613,12.676,34.208-.088.289-2.489,6.26-8.083,13.393-2.03,2.589-3.634,5.535-4.694,8.737-1.824,5.51-5.826,13.734-13.202,12.258-1.02-.204-1.995-.61-2.913-1.135-3.848-2.202-14.04-9.876-13.721-29.291Z" style="fill: #25241d;"/>
        <path d="M42.015,79.4c-.877-6.028-2.271-12.314-2.277-18.47,0-.723.051-1.443.125-2.162.536-5.24,1.065-10.818,2.177-16.008.182-.849.422-1.685.71-2.504,1.702-4.834,3.938-9.894,6.126-14.553,1.185-2.523,2.904-4.839,4.539-7.087,1.152-1.583,2.309-3.174,3.48-4.758-.039-.175-.08-.35-.11-.529-.208-1.239-.522-2.459-1.062-3.573-1.435-2.963-4.881-7.019-12.731-3.67-.079.086-14.3,4.96-28.758,21.608-.21.114-19.8,19.613-12.676,34.208.088.289,2.489,6.26,8.083,13.393,2.03,2.589,3.634,5.535,4.694,8.737,1.824,5.51,5.826,13.734,13.202,12.258,1.02-.204,1.995-.61,2.913-1.135,2.641-1.511,8.263-5.605,11.432-14.293.169-.464.204-.966.133-1.454,0-.002,0-.005-.001-.007Z" style="fill: #25241d;"/>
        <ellipse cx="68.866" cy="20.261" rx="10.554" ry="6.015" transform="translate(29.13 80.045) rotate(-72.784)" style="fill: #25241d;"/>
        <ellipse cx="113.626" cy="128.17" rx="15.553" ry="5.768" transform="translate(-30.324 35.344) rotate(-15.626)" style="fill: #25241d;"/>
        <path d="M34.722,124.475s-4.516,4.733-9.705.424c0,0,5.294-4.074,12.268-8.43,0,0,2.174,3.641-2.563,8.006Z" style="fill: #25241d;"/>
        <ellipse cx="63.343" cy="224.357" rx="7.151" ry="10.154" transform="translate(-169.728 219.225) rotate(-72.972)" style="fill: #25241d;"/>
        <path d="M45.885,195.042l-1.908,17.429s12.696-6.808,1.908-17.429Z" style="fill: #25241d;"/>
        <path d="M129.477,216.081s-.099-6.683,3.487-10.736c1.44-1.627,2.619-3.479,3.274-5.551.809-2.561-.807-5.168-1.852-6.214,0,0-2.992-4.158-11.77,4.46-1.329,1.305-2.794,2.458-4.349,3.482-2.152,1.417-5.185,4.547-4.557,10.802.203.161.339,7.891,5.259,9.926.944.391,1.983.485,2.998.365,2.093-.249,6.576-1.32,7.511-6.533Z" style="fill: #25241d;"/>
        <path d="M67.413,166.441s.145-10.158-5.309-16.317c-2.19-2.473-3.984-5.287-4.981-8.436-1.232-3.892,1.223-7.857,2.81-9.448,0,0,4.544-6.323,17.895,6.77,2.021,1.982,4.249,3.734,6.614,5.29,3.272,2.152,7.885,6.908,6.936,16.416-.309.246-.509,11.996-7.986,15.093-1.435.594-3.014.74-4.556.557-3.181-.377-9.997-2.001-11.423-9.926Z" style="fill: #25241d;"/>
        <ellipse cx="119.437" cy="163.386" rx="7.151" ry="10.154" transform="translate(-55.883 62.276) rotate(-23.86)" style="fill: #25241d;"/>
        <g>
          <g>
            <path d="M41.111,230.696c-.968.583-4.414,3.572-3.023,10.954l2.2-.003s-1.495-6.057,1.906-9.663c.505-.535.102-1.416-.634-1.409-.008,0-.016,0-.023,0-.152.001-.296.042-.426.121Z" style="fill: #25241d;"/>
            <path d="M51.735,230.696c-.968.583-4.419,3.547-3.028,10.929l2.213-.008s-1.502-6.027,1.898-9.633c.505-.535.102-1.416-.634-1.409-.008,0-.016,0-.023,0-.152.001-.296.042-.426.121Z" style="fill: #25241d;"/>
          </g>
          <g>
            <path d="M147.46,230.696c.968.583,4.414,3.572,3.023,10.954l-2.2-.003s1.495-6.057-1.906-9.663c-.505-.535-.102-1.416.634-1.409.008,0,.016,0,.023,0,.152.001.296.042.426.121Z" style="fill: #25241d;"/>
            <path d="M136.836,230.696c.968.583,4.419,3.547,3.028,10.929l-2.213-.008s1.502-6.027-1.898-9.633c-.505-.535-.102-1.416.634-1.409.008,0,.016,0,.023,0,.152.001.296.042.426.121Z" style="fill: #25241d;"/>
          </g>
        </g>
        <path d="M36.247,174.541c.625,2.088,2.022,7.651.465,11.348,1.282-.068,2.504-.468,2.485-.466,0,0,2.007-6.404-2.57-11.104-.164-.168-.448-.003-.381.222Z" style="fill: #25241d;"/>
        <path d="M45.481,182.729v-.015c.873-5.496-.794-9.595-1.843-11.522-.195-.358.234-.723.567-.489,4.477,3.153,3.012,10.367,3.012,10.367,0,0-.877,1.111-1.735,1.659Z" style="fill: #25241d;"/>
        <g>
          <path d="M151.452,174.541c-.625,2.088-2.022,7.651-.465,11.348-1.282-.068-2.52-.478-2.502-.475,0,0-1.99-6.395,2.587-11.094.164-.168.448-.003.381.222Z" style="fill: #25241d;"/>
          <path d="M142.218,182.729v-.015c-.873-5.496.794-9.595,1.843-11.522.195-.358-.234-.723-.567-.489-4.477,3.153-3.012,10.367-3.012,10.367,0,0,.877,1.111,1.735,1.659Z" style="fill: #25241d;"/>
        </g>
      </g>
      <path d="M76.18,54.813c-1.229,0-2.225-.996-2.225-2.225,0-4.956-4.032-8.987-8.987-8.987s-8.987,4.032-8.987,8.987c0,1.229-.996,2.225-2.225,2.225s-2.225-.996-2.225-2.225c0-7.41,6.028-13.438,13.438-13.438s13.438,6.028,13.438,13.438c0,1.229-.996,2.225-2.225,2.225Z" style="fill: #25241d;"/>
      <path d="M130.621,54.813c-1.229,0-2.225-.996-2.225-2.225,0-4.956-4.032-8.987-8.987-8.987s-8.987,4.032-8.987,8.987c0,1.229-.996,2.225-2.225,2.225s-2.225-.996-2.225-2.225c0-7.41,6.028-13.438,13.438-13.438s13.438,6.028,13.438,13.438c0,1.229-.996,2.225-2.225,2.225Z" style="fill: #fdedc0;"/>
      <path d="M111.047,81.589c-.615-.905-1.854-1.09-2.704-.428l-3.569,2.78c-1.343.452-5.657,1.653-9.054-.235-1.315-.731-2.11-2.138-2.11-3.643v-.003l.005-.004c.211-.158.448-.275.702-.348,1.457-.416,6.797-2.178,8.657-6.08.556-1.166.501-2.538-.203-3.621-.806-1.24-2.456-2.703-5.833-2.92-.659-.042-9.068-.041-9.677-.011-3.519.176-5.212,1.682-6.029,2.948-.697,1.08-.748,2.435-.196,3.596,1.855,3.903,7.194,5.668,8.657,6.086.254.073.494.19.705.349l.005.004h0c0,1.518-.812,2.932-2.143,3.662-4.074,2.236-9.445.065-9.445.065l-3.312-2.58c-.809-.631-2.001-.557-2.656.233-.677.818-.541,2.027.291,2.675l4.073,3.173c.565,15.413,14.795,19.19,14.795,19.19,0,0,14.345-3.806,14.803-19.373l3.788-2.951c.787-.613,1.012-1.742.451-2.567Z" style="fill: #25241d;"/>
      <path d="M103.422,102.448l-2.291-13.703h-8.066l.587,15.012c.03.761-.579,1.394-1.341,1.394h-.805c-.762,0-1.371-.633-1.341-1.394l.587-15.012h-8.066l-2.291,13.703s-1.309,14.023,11.49,13.977c.009.008.017-.077.023-.235.006.159.014.244.023.235,12.799.046,11.49-13.977,11.49-13.977Z" style="fill: #f46a61;"/>
    </g>
  </g>
</svg>